<?xml version="1.0" encoding="UTF-8" standalone="no"?>
<svg xmlns:rdf="http://www.w3.org/1999/02/22-rdf-syntax-ns#" xmlns="http://www.w3.org/2000/svg" xml:space="preserve" height="140.47" viewBox="0 0 191.09729 140.47176" width="191.1" version="1.1" xmlns:cc="http://creativecommons.org/ns#" xmlns:dc="http://purl.org/dc/elements/1.1/"><g transform="matrix(1.25 0 0 -1.25 -286.65 564.34)"><path d="m353.4 434.16c1.9407-0.29393 5.7476-0.99048 8.5458-1.0066 3.978-0.0181 6.8971-2.0756 9.6531-4.2538 2.76-2.1843 4.1048-5.6288 5.2604-7.0924 3.7566-4.751 2.9835-6.3797 4.6343-13.009 0.72272-2.8788 1.077-7.4447 0.1047-9.5041-0.9764-2.0554-3.3459-5.4718-7.7527-6.2368-0.0946-3.515-3.8592-6.3878-4.8034-8.0828-0.40062-1.4857-0.7026-2.1098-0.9945-4.0484-0.29795-1.9387-1.983-3.4908-4.6303-3.5291-2.6513-0.0362-7.5916 1.218-8.884 1.4173-1.2985 0.19728-1.7233 0.2617-2.2548-0.3221-0.52945-0.5818-1.2038-0.75495-1.7796-3.0902-0.4288-1.7615-1.1898-2.3272-1.983-2.0856-0.80125 0.23958-3.0358 0.79723-3.1405 0.48115-1.84-2.6976-3.978-3.4506-4.6484-1.5562-0.51535 1.4475 1.4636 6.3133 1.4575 7.5876-0.004 1.4273-0.27377 2.6654-0.35832 3.5552-0.0845 0.89585-0.5657 1.7293-2.0373 1.5018-1.9487-0.29795-3.668-2.1863-8.4029-3.1566-2.1802-0.4449-2.299-2.0333-2.8748-4.3746-0.57577-2.3393-0.25367-5.5724-0.1993-9.5544 0.0584-3.978-3.368-3.054-3.2875-6.4441-0.77707-1.7233 1.6568-7.5936 2.4319-9.8584 0.91398-2.6755 2.5366-4.7551 4.0746-6.9736-0.28385-0.98645-10.138-2.0313-10.114-1.1515 0.0745 1.9749 0.98442 3.5955 0.43082 4.8296-0.27177 1.4515-1.6347 7.4205-3.9941 9.8786-0.59588-1.0146-1.2038-2.5184-1.5622-4.888 0.27177-2.907 0.31205-7.3098 0.63212-9.8604-1.6709-0.84555-7.201-0.72877-7.8412 0.1409 0 0-0.30397 0.42478-0.3684 0.95425 0.1993 1.2904 1.8582 7.4386 1.2743 10.831-3.5009 1.6387-6.8709 5.4174-6.0978 12.784 0.25567 2.3956-0.11275 8.5539 1.0529 12.723 0.34425 1.234 0.28788 3.2331-0.0382 3.8451-0.32612 0.62005-1.371 0.77507-1.1455 1.1495-5.045 1.7534-9.5404 1.9286-14.73 1.1736-2.4118-0.3543-2.8446-2.0675-3.7485-3.7183-0.66837-1.2139-1.9246-1.3166-3.0741-0.2456-0.93612 0.86365-2.3312 2.605-4.445 1.9206-1.4998-0.48517-7.8151-0.74485-10.418 0.23958-0.8113-0.0543-0.5657-1.9648-0.25165-2.8446 0.22145-0.63013 1.232-1.8582 1.2663-2.8446 0.40867-2.0997 0.46505-8.1996 0.31405-9.2746-0.32008-2.3091 0.23355-4.0787 1.1334-5.3328 2.2648-3.1365 7.3319-13.77 7.956-15.854 0.38653-1.3066 1.2079-2.1058 2.3292-3.2311 1.1716-1.1716 3.9357-1.7998 4.5698-2.5486 0.72475-0.99653 1.8098-1.9266 2.2246-3.5351 0.29995-0.81133-11.03-0.87573-10.805 0.63815-0.2919 1.1696-0.34827 2.3715-0.48517 3.821 0.006 0.83548-3.835 1.4152-5.4396 6.5448-0.22345 0.74487-0.8596 2.0394-1.2844 2.1561-1.373 0.74687-3.0298 1.5944-4.274 2.4379-1.1998 0.81938-2.9352 4.1994-2.3896 6.6152-0.24358 2.6151-1.84 7.962-2.8667 9.8826-1.0287 1.9206-2.1944 3.8451-3.2794 5.5241-0.23153-2.4641-0.66435-6.1482-1.4676-7.2192-0.95021-1.0488-1.2401-2.3735-1.2401-2.3735 1.3206-3.972 1.7595-9.021 3.1607-11.556 0.8878-1.6085 1.079-6.5287 2.1742-8.0144 1.0992-1.4938 1.1797-2.899 1.6528-4.6584 0.50933-1.4756-10.013 2.146-9.8343 3.1284 0.35029 0.83143 0.0805 2.6856 0.45698 3.7223-0.64622 0.0986-1.2864 1.079-1.2864 1.079 0.37646 1.6146 1.1354 3.1023 0.84955 4.7591-1.1294 1.2743-3.068 6.42-4.6242 7.7547-1.5682 1.3408-0.54757 3.215-0.1228 4.7007 0.47913 1.679 1.1233 3.978 1.1978 5.9489 0.0805 1.9729 0.53349 4.28 1.1858 6.6072-0.48718 1.5058-3.4405 0.88178-5.5543 4.4249-1.0106 1.675-2.454 2.8647-4.0162 4.3544-3.3298-0.155-8.0728 1.0851-9.0874 4.6484-0.83948 2.9352 1.1556 7.813 4.6282 10.682 5.1658 8.1493 14.549 12.878 17.374 15.584 2.0856 2.0051 5.0389 4.9544 7.1548 7.1346 1.1858 1.218 5.1658 2.3413 5.9046 3.5673 0.73683 1.232 2.2104 3.1526 3.7143 3.4586 2.915 0.59388 7.1447 2.7278 7.7446 3.7364 0.77708 1.3307 2.8386 2.6292 5.2503 4.0304 2.4198 1.3971 9.6672 4.7229 14.519 6.1904 4.8537 1.4716 11.938 2.5205 14.134 2.5004 2.2044-0.0141 6.7763-0.13287 9.7296-1.83 0.81332-0.46705 5.3127-0.69455 7.6963-3.0761 1.2401-1.2462 4.6142-0.58182 4.8819-2.3514 0.52945 0.34022 1.2944-0.1369 1.832-1.2864 0.80122 0.3825 1.4918-0.34625 2.1319-1.6387 1.3206 0.9784 3.0781 0.41673 3.4828-1.7776 0.0564-0.29393 0.31202-0.6422 0.68447-0.41068 1.0529 0.6422 2.6372 0.89183 3.4405-0.49525 0.92405-1.6045 2.9614-3.8089 4.9806-5.0027 1.1616 0.17915 2.6715 0.84552 4.6102 0.5536zm10.41-45.201c1.0851-0.0242 1.8239 1.0227 1.6508 2.3292-0.17515 1.3126-1.1978 2.3916-2.2829 2.4158-1.0891 0.0242-1.828-1.0247-1.6528-2.3292 0.17515-1.3166 1.1938-2.3997 2.2849-2.4158zm-129.09 12.294c-3.3881-1.4535-3.1989-9.4397 2.9151-8.3848-1.3951 1.5441-1.3951 7.4366-2.9151 8.3848" fill="#c60c30"/></g></svg>
